<svg width="53" height="24" viewBox="0 0 53 24" fill="none" xmlns="http://www.w3.org/2000/svg">
<path d="M37.5387 4.31827C40.4413 4.42084 46.0618 4.69776 46.6362 4.77981C47.0054 4.82084 47.0875 4.88238 47.149 5.10802C47.2003 5.33366 47.149 5.42597 46.8208 5.71315C46.5028 5.97981 46.4516 6.07212 46.5541 6.1952C46.6259 6.27725 47.2823 6.86186 48.031 7.50802C49.6926 8.93366 49.9695 9.22084 50.3285 9.82596C50.6054 10.2875 50.6157 10.3901 50.6669 11.9901C50.708 13.2926 50.749 13.6824 50.8618 13.7234C50.9336 13.7439 51.0875 13.8567 51.19 13.9593C51.3644 14.1337 51.3849 14.3183 51.3849 15.4362C51.3849 17.549 51.2003 18.0413 50.2054 18.5131C49.3234 18.9234 45.8464 19.6926 45.4875 19.549C45.3746 19.508 45.3336 19.3234 45.3336 18.8516C45.3336 16.9029 44.1644 15.2619 42.2772 14.5644C41.59 14.308 40.1952 14.2772 39.4464 14.5131C38.3285 14.8619 37.2311 15.8465 36.6875 17.0055C36.4208 17.5696 36.3593 17.8465 36.3285 18.6157C36.308 19.1183 36.2464 19.5798 36.1849 19.6413C36.0618 19.7747 14.5644 20.0106 14.39 19.8772C14.3182 19.826 14.2567 19.3542 14.2362 18.6875C14.2054 17.7029 14.1746 17.5183 13.8772 16.8926C13.4157 15.9183 12.5952 15.0978 11.6618 14.6567C10.9541 14.3285 10.8721 14.308 9.74387 14.308C8.61567 14.308 8.53362 14.3183 7.88746 14.6465C6.14387 15.5183 5.10798 17.3439 5.28233 19.1901C5.33361 19.7234 5.32336 19.8772 5.21054 19.9285C4.91311 20.0413 2.56438 19.7952 2.17464 19.6106C1.46695 19.2824 1.12849 18.1644 1.12849 16.1131C1.12849 15.149 1.17977 15.0465 1.64131 14.9234C1.86695 14.8721 1.92849 14.7696 2.04131 14.2772C2.24644 13.3439 2.75926 11.8978 2.9849 11.5798C3.33361 11.0875 3.74387 10.8721 4.75926 10.667C6.52336 10.2978 10.0618 9.81571 14.667 9.31314L16.667 9.09776L18.308 7.90802C20.4926 6.32853 22.3387 5.09776 23.1387 4.70802C23.7336 4.41058 23.9387 4.36956 25.108 4.29776C26.708 4.1952 34.4003 4.20545 37.5387 4.31827ZM23.6721 5.25161C23.0875 5.52853 20.5746 7.19007 18.9746 8.36956C16.9849 9.84648 17.108 9.7952 15.1285 9.99007C10.1336 10.5029 4.54387 11.3029 4.02079 11.5798C3.57977 11.8157 3.21054 12.6465 2.75926 14.3901C2.53362 15.2926 2.349 15.5901 2.02079 15.5901C1.82592 15.5901 1.81567 15.6413 1.8772 16.7183C1.95926 18.1131 2.1131 18.7388 2.4208 18.9337C2.55413 19.026 3.02592 19.1183 3.57977 19.149L4.5131 19.2106V18.7593C4.52336 17.4055 5.09772 16.0413 6.08233 15.0567C8.08233 13.0567 11.3131 13.0055 13.3541 14.9542C14.4413 15.9901 14.9336 17.0567 14.9952 18.4721L15.0259 19.2106L22.0003 19.149C25.8362 19.108 30.4618 19.0772 32.2772 19.0772H35.59V18.5337C35.59 17.2721 36.1234 16.1029 37.149 15.0772C37.8772 14.3593 38.7182 13.908 39.7439 13.6926C40.6464 13.508 40.9952 13.508 41.8977 13.6926C42.9028 13.908 43.6105 14.2875 44.4105 15.0362C45.3849 15.9593 46.0516 17.3337 46.0516 18.4413V18.7901L46.4926 18.7183C47.3234 18.5952 49.4875 18.0311 49.9285 17.826C50.1644 17.7131 50.4208 17.5183 50.4823 17.3952C50.5439 17.2824 50.6157 16.5747 50.6464 15.8465L50.6875 14.5131L50.3798 14.349C50.0105 14.1439 49.949 13.8465 49.949 12.0516C49.9387 10.0926 50.0516 10.2567 46.8926 7.49776C46.0926 6.80033 45.4362 6.15417 45.4362 6.07212C45.4362 5.97981 45.5285 5.80545 45.6516 5.68238L45.8567 5.45674L45.0054 5.3952C44.1336 5.33366 37.6926 5.04648 35.6413 4.98494C35.0157 4.96443 32.1952 4.96443 29.3644 4.97468L24.2259 5.00545L23.6721 5.25161Z" fill="#0D0D0D"/>
<path d="M36.7191 5.29463C41.0576 5.4895 42.4524 5.58181 42.6781 5.67412C43.0883 5.85873 47.796 9.46899 47.796 9.60232C47.796 9.73566 46.6063 9.78694 38.6678 9.95104C32.996 10.0741 23.6627 10.3203 21.0781 10.4228L19.3345 10.4844L18.9447 9.92027C18.7294 9.60232 18.5653 9.26386 18.5858 9.1613C18.6165 8.98694 20.0114 7.9613 22.7499 6.08437L23.9191 5.28437L29.9806 5.27412C33.3242 5.27412 36.3499 5.28437 36.7191 5.29463Z" fill="#0D0D0D"/>
<path d="M38.493 10.873C38.6058 11.314 38.3904 11.3961 37.1289 11.3653C35.9699 11.3345 35.9494 11.3345 35.9186 11.0884C35.8981 10.9551 35.9391 10.8012 36.0212 10.7602C36.093 10.7089 36.6673 10.6679 37.293 10.6679C38.3391 10.6679 38.4417 10.6884 38.493 10.873Z" fill="#0D0D0D"/>
<path d="M27.622 11.1395C27.7861 11.3036 27.6835 11.601 27.4271 11.7036C27.2732 11.7549 26.6374 11.7856 26.0117 11.7754L24.8732 11.7446V11.4369V11.1292L26.2168 11.0985C26.945 11.0882 27.5809 11.1087 27.622 11.1395Z" fill="#0D0D0D"/>
<path d="M41.8173 14.9193C43.048 15.2578 43.9096 15.9654 44.4429 17.1039C44.7404 17.7295 44.7711 17.8731 44.7711 18.8167C44.7711 19.7295 44.7404 19.9142 44.4839 20.4578C43.7147 22.109 41.9711 23.0321 40.1557 22.7449C38.8737 22.5501 37.7865 21.7501 37.1814 20.5501C36.8942 19.986 36.8737 19.8629 36.8737 18.8167C36.8737 17.8116 36.9045 17.627 37.1506 17.1039C37.6634 15.9962 38.5865 15.2475 39.848 14.9193C40.5865 14.7347 41.1096 14.7347 41.8173 14.9193ZM39.5301 16.6321C38.5968 17.227 38.1352 18.2526 38.3404 19.2475C38.5147 20.0885 38.9865 20.6834 39.766 21.0424C40.3404 21.3193 40.5045 21.3501 41.048 21.2988C42.3506 21.186 43.325 20.0988 43.3147 18.7654C43.3045 17.7398 42.7711 16.9501 41.7968 16.4885C41.2019 16.2013 40.0942 16.2731 39.5301 16.6321Z" fill="#0D0D0D"/>
<path d="M10.8528 14.9327C12.0118 15.2404 12.8528 15.9481 13.3861 17.0558C13.7964 17.8865 13.9092 18.7173 13.7451 19.5583C13.4066 21.1993 12.1451 22.4609 10.5348 22.7583C8.92459 23.0558 7.26305 22.3276 6.381 20.9532C5.38613 19.3942 5.61177 17.2711 6.91433 15.9788C7.96049 14.9532 9.45792 14.5532 10.8528 14.9327ZM8.68869 16.5224C7.55023 17.1276 7.03741 18.3378 7.38613 19.5993C7.43741 19.7942 7.65279 20.1532 7.85792 20.3891C9.07844 21.825 11.2015 21.5583 12.0425 19.8763C12.6169 18.7276 12.2682 17.466 11.181 16.7276C10.4528 16.2352 9.40664 16.1429 8.68869 16.5224Z" fill="#0D0D0D"/>
</svg>
