<svg width="24" height="24" viewBox="0 0 24 24" fill="none" xmlns="http://www.w3.org/2000/svg">
<path d="M2 21.9975L4 15" stroke="#000211" stroke-width="1.5" stroke-linecap="round" stroke-linejoin="round"/>
<path d="M22 21.9975L20 15" stroke="#000211" stroke-width="1.5" stroke-linecap="round" stroke-linejoin="round"/>
<path d="M12 21.9977V20.998" stroke="#000211" stroke-width="1.5" stroke-linecap="round" stroke-linejoin="round"/>
<path d="M12 17.9958V16.9961" stroke="#000211" stroke-width="1.5" stroke-linecap="round" stroke-linejoin="round"/>
<path d="M4.70859 5.46875C4.51853 5.46875 4.34509 5.31469 4.35383 5.11331C4.405 3.93408 4.54837 3.1664 4.95004 2.55911C5.18114 2.20973 5.46818 1.90586 5.79822 1.66123C6.69026 1 7.94869 1 10.4655 1H13.5356C16.0525 1 17.3109 1 18.203 1.66123C18.5329 1.90586 18.82 2.20973 19.0511 2.55911C19.4527 3.16633 19.5961 3.93391 19.6473 5.11292C19.6561 5.31453 19.4824 5.46875 19.2921 5.46875C18.2324 5.46875 17.3733 6.37818 17.3733 7.5C17.3733 8.62182 18.2324 9.53121 19.2921 9.53121C19.4824 9.53121 19.6561 9.68545 19.6473 9.88711C19.5961 11.0661 19.4527 11.8337 19.0511 12.4409C18.82 12.7902 18.5329 13.0941 18.203 13.3388C17.3109 14 16.0525 14 13.5356 14H10.4655C7.94869 14 6.69026 14 5.79822 13.3388C5.46818 13.0941 5.18114 12.7902 4.95004 12.4409C4.54837 11.8336 4.405 11.0659 4.35383 9.88672C4.34509 9.6853 4.51853 9.53121 4.70859 9.53121C5.76831 9.53121 6.62738 8.62182 6.62738 7.5C6.62738 6.37818 5.76831 5.46875 4.70859 5.46875Z" fill="#000211" stroke="#000211" stroke-width="1.14706" stroke-linejoin="round"/>
<path d="M10.0879 9.41142L13.9115 5.58789" stroke="#F2F2F2" stroke-width="1.5" stroke-linecap="round" stroke-linejoin="round"/>
<path d="M10.0879 5.58789H10.0965M13.9028 9.41142H13.9115" stroke="#F2F2F2" stroke-width="1.5" stroke-linecap="round" stroke-linejoin="round"/>
</svg>
