<svg width="32" height="32" viewBox="0 0 32 32" fill="none" xmlns="http://www.w3.org/2000/svg">
<path d="M30.1556 12.682C29.5742 14.8122 27.1705 16.0104 27.1705 16.0104C27.1705 16.0104 25.7095 13.7549 26.291 11.6248C26.8724 9.49461 29.276 8.29639 29.276 8.29639C29.276 8.29639 30.7371 10.5519 30.1556 12.682Z" stroke="white" stroke-width="2" stroke-linejoin="round"/>
<path d="M29.2446 20.2753C27.6158 21.7672 24.9401 21.5023 24.9401 21.5023C24.9401 21.5023 24.9054 18.8183 26.5342 17.3264C28.163 15.8343 30.8387 16.0993 30.8387 16.0993C30.8387 16.0993 30.8734 18.7832 29.2446 20.2753Z" stroke="white" stroke-width="2" stroke-linejoin="round"/>
<path d="M21.1442 25.3936C21.1442 25.3936 23.3747 26.8954 25.5191 26.3558C27.6634 25.8163 28.9095 23.4399 28.9095 23.4399C28.9095 23.4399 26.6789 21.9382 24.5345 22.4777C22.3902 23.0172 21.1442 25.3936 21.1442 25.3936ZM21.1442 25.3936L17.2093 23.7503C15.8549 23.1846 14.2984 23.8241 13.7328 25.1785C13.1672 26.5328 13.3123 27.9975 14.6667 28.5632" stroke="white" stroke-width="2" stroke-linecap="round" stroke-linejoin="round"/>
<path d="M26.4494 5.86876C27.3566 7.88465 26.2656 10.336 26.2656 10.336C26.2656 10.336 23.7035 9.519 22.7962 7.50311C21.889 5.48723 22.9802 3.03587 22.9802 3.03587C22.9802 3.03587 25.5422 3.85288 26.4494 5.86876Z" stroke="white" stroke-width="2" stroke-linejoin="round"/>
<path d="M1.84437 12.682C2.42582 14.8122 4.82954 16.0104 4.82954 16.0104C4.82954 16.0104 6.29053 13.7549 5.70902 11.6248C5.12762 9.49461 2.72395 8.29639 2.72395 8.29639C2.72395 8.29639 1.26292 10.5519 1.84437 12.682Z" stroke="white" stroke-width="2" stroke-linejoin="round"/>
<path d="M2.75543 20.2753C4.38424 21.7672 7.05993 21.5023 7.05993 21.5023C7.05993 21.5023 7.09456 18.8183 5.46581 17.3264C3.83696 15.8343 1.16135 16.0993 1.16135 16.0993C1.16135 16.0993 1.12656 18.7832 2.75543 20.2753Z" stroke="white" stroke-width="2" stroke-linejoin="round"/>
<path d="M10.8558 25.3936C10.8558 25.3936 8.62529 26.8954 6.48092 26.3558C4.33661 25.8163 3.09054 23.4399 3.09054 23.4399C3.09054 23.4399 5.32111 21.9382 7.46548 22.4777C9.60984 23.0172 10.8558 25.3936 10.8558 25.3936ZM10.8558 25.3936L14.7907 23.7503C16.1451 23.1846 17.7016 23.8241 18.2672 25.1785C18.8328 26.5328 18.6877 27.9975 17.3333 28.5632" stroke="white" stroke-width="2" stroke-linecap="round" stroke-linejoin="round"/>
<path d="M5.55059 5.86876C4.64337 7.88465 5.73445 10.336 5.73445 10.336C5.73445 10.336 8.29654 9.519 9.20376 7.50311C10.111 5.48723 9.01977 3.03587 9.01977 3.03587C9.01977 3.03587 6.45781 3.85288 5.55059 5.86876Z" stroke="white" stroke-width="2" stroke-linejoin="round"/>
<path d="M16.805 10.5704L17.6262 12.2265C17.7382 12.457 18.0368 12.6782 18.2887 12.7205L19.7772 12.9698C20.7291 13.1298 20.9531 13.8261 20.2672 14.513L19.11 15.6797C18.914 15.8773 18.8067 16.2585 18.8674 16.5313L19.1987 17.9757C19.4599 19.1189 18.858 19.5612 17.8548 18.9637L16.4596 18.1309C16.2076 17.9804 15.7923 17.9804 15.5358 18.1309L14.1406 18.9637C13.142 19.5612 12.5354 19.1142 12.7967 17.9757L13.128 16.5313C13.1887 16.2585 13.0813 15.8773 12.8854 15.6797L11.7282 14.513C11.0469 13.8261 11.2662 13.1298 12.2181 12.9698L13.7066 12.7205C13.9539 12.6782 14.2526 12.457 14.3646 12.2265L15.1858 10.5704C15.6338 9.67183 16.3616 9.67183 16.805 10.5704Z" fill="white"/>
</svg>
